<svg width="33" height="20" viewBox="0 0 33 20" fill="none" xmlns="http://www.w3.org/2000/svg">
<path d="M20.4673 17.5859H11.7549V2.10498H20.4674L20.4673 17.5859Z" fill="#FF5F00"/>
<path d="M12.3068 9.84551C12.3068 6.70521 13.794 3.90782 16.1097 2.10506C14.3568 0.738454 12.1887 -0.00325046 9.95645 1.07084e-05C4.45752 1.07084e-05 0 4.40792 0 9.84551C0 15.2831 4.45752 19.691 9.95645 19.691C12.1888 19.6943 14.3569 18.9526 16.1099 17.586C13.7943 15.7835 12.3068 12.986 12.3068 9.84551Z" fill="#EB001B"/>
<path d="M32.221 9.84575C32.221 15.2833 27.7635 19.6912 22.2646 19.6912C20.032 19.6945 17.8636 18.9528 16.1104 17.5862C18.4267 15.7834 19.9139 12.9862 19.9139 9.84575C19.9139 6.7053 18.4267 3.90806 16.1104 2.10531C17.8636 0.738739 20.0319 -0.00294916 22.2644 0.000254475C27.7634 0.000254475 32.221 4.40817 32.221 9.84575Z" fill="#F79E1B"/>
</svg>
