<svg width="17" height="17" viewBox="0 0 17 17" fill="none" xmlns="http://www.w3.org/2000/svg">
<path d="M16.065 11.6922C14.9033 11.6922 13.7794 11.5033 12.7311 11.1633C12.4006 11.05 12.0322 11.135 11.7772 11.39L10.2944 13.2506C7.62167 11.9756 5.11889 9.56722 3.78722 6.8L5.62889 5.23222C5.88389 4.96778 5.95944 4.59944 5.85556 4.26889C5.50611 3.22056 5.32667 2.09667 5.32667 0.935C5.32667 0.425 4.90167 0 4.39167 0H1.12389C0.613889 0 0 0.226667 0 0.935C0 9.70889 7.30056 17 16.065 17C16.7356 17 17 16.405 17 15.8856V12.6272C17 12.1172 16.575 11.6922 16.065 11.6922Z" fill="#EB1933"/>
</svg>
