<svg width="48" height="48" viewBox="0 0 48 48" fill="none" xmlns="http://www.w3.org/2000/svg">
<circle cx="24" cy="24" r="24" fill="#EDEFF4" fill-opacity="0.45"/>
<g clip-path="url(#clip0_3108_1210)">
<path d="M34.0625 16.375C33.8209 16.375 33.625 16.5709 33.625 16.8125V19H31.875V16.8125C31.875 16.5709 31.6791 16.375 31.4375 16.375C31.1959 16.375 31 16.5709 31 16.8125V19.4375C31 19.6791 31.1959 19.875 31.4375 19.875H33.625V22.0625C33.625 22.3041 33.8209 22.5 34.0625 22.5C34.3041 22.5 34.5 22.3041 34.5 22.0625V16.8125C34.5 16.5709 34.3041 16.375 34.0625 16.375Z" fill="#222222"/>
<path d="M28.5132 20.2899L28.6087 20.2581C29.5157 19.9558 30.125 19.1104 30.125 18.1544C30.125 17.1961 29.3488 16.3613 28.3414 16.3752C27.3949 16.3931 26.625 17.178 26.625 18.1248C26.625 18.3664 26.8209 18.5623 27.0625 18.5623C27.3041 18.5623 27.5 18.3664 27.5 18.1248C27.5 17.6515 27.8849 17.259 28.3579 17.2501C28.8467 17.238 29.25 17.6644 29.25 18.1544C29.25 18.7331 28.8811 19.2449 28.3321 19.428L28.2366 19.4598C27.2727 19.7811 26.625 20.6797 26.625 21.6958V22.0624C26.625 22.304 26.8209 22.4999 27.0625 22.4999H29.6875C29.9291 22.4999 30.125 22.304 30.125 22.0624C30.125 21.8208 29.9291 21.6249 29.6875 21.6249H27.5017C27.5306 21.0154 27.9297 20.4844 28.5132 20.2899Z" fill="#222222"/>
<path d="M37.9993 19.3218C37.9378 15.2961 34.6838 12.0492 30.6543 12.0005C25.1605 11.9368 21.5064 17.6714 23.829 22.5988L23.1593 25.3691C22.9522 26.2248 23.6983 27.0246 24.5934 26.8532L27.6281 26.2733C32.5592 28.3968 38.0815 24.698 37.9993 19.3218ZM27.8606 25.4194C27.7778 25.3819 27.6856 25.3713 27.5979 25.3882C24.1444 26.0482 24.4356 25.9959 24.3626 25.9999C24.1335 25.9999 24.0001 25.8302 24.0001 25.6557C24.0001 25.5953 23.9479 25.8307 24.7163 22.6521C24.7405 22.552 24.7286 22.4465 24.6827 22.3544C22.5133 17.9956 25.7415 12.8187 30.6437 12.8755C34.223 12.9188 37.0697 15.7562 37.1244 19.3352C37.1971 24.0915 32.2577 27.4113 27.8606 25.4194Z" fill="#222222"/>
<path d="M29.7563 30.7622C29.0725 30.0783 27.9655 30.078 27.2814 30.7621L25.3573 32.6861L24.8076 32.3563C21.8686 30.5928 19.4077 28.1323 17.6438 25.1925L17.314 24.6427L19.238 22.7187C19.9219 22.0348 19.922 20.9278 19.238 20.2438L15.835 16.8408C15.1526 16.1585 14.0425 16.1586 13.3601 16.8408L10.8327 19.3682C10.1847 20.0162 9.88788 20.9427 10.0385 21.8465C10.3143 23.5011 10.8741 24.9902 11.9147 26.4093C14.2082 29.5365 15.9901 31.2266 18.3687 33.6051C19.9876 35.224 21.7446 36.7314 23.5909 38.0854C24.879 39.03 26.3928 39.6681 27.9685 39.9307C28.1981 39.9689 28.3557 40.0001 28.619 40.0001C29.367 40.0001 30.0951 39.7042 30.6319 39.1674L33.1592 36.64C33.8431 35.9561 33.8432 34.849 33.1592 34.1651L29.7563 30.7622ZM13.9788 17.4596C14.32 17.1184 14.8751 17.1184 15.2163 17.4596L18.6192 20.8626C18.9612 21.2045 18.9613 21.7581 18.6192 22.1L18.0005 22.7187L13.3601 18.0783L13.9788 17.4596ZM30.0132 38.5486C29.5645 38.9973 28.9232 39.2027 28.2973 39.0985C26.7747 38.8449 25.4143 38.3374 24.1083 37.3798C22.2978 36.0521 20.5749 34.5739 18.9874 32.9864C16.6664 30.6654 14.8946 28.993 12.6203 25.8918C11.6858 24.6175 11.1627 23.2686 10.9016 21.7027C10.7973 21.0769 11.0029 20.4355 11.4514 19.9869L12.7413 18.697L17.3818 23.3374L16.4537 24.2655C16.3117 24.4075 16.2846 24.6278 16.3879 24.8L16.8935 25.6427C18.7307 28.7046 21.2945 31.2687 24.3574 33.1065L25.2001 33.6121C25.3722 33.7154 25.5926 33.6883 25.7345 33.5463L26.6626 32.6182L31.303 37.2586L30.0132 38.5486ZM32.5405 36.0212L31.9218 36.64L27.2814 31.9996L27.9001 31.3808C28.242 31.039 28.7955 31.0388 29.1375 31.3809L32.5406 34.7839C32.8825 35.1257 32.8825 35.6793 32.5405 36.0212Z" fill="#222222"/>
</g>
<defs>
<clipPath id="clip0_3108_1210">
<rect width="28" height="28" fill="white" transform="translate(10 12)"/>
</clipPath>
</defs>
</svg>
