<svg width="48" height="48" viewBox="0 0 48 48" fill="none" xmlns="http://www.w3.org/2000/svg">
<circle cx="24" cy="24" r="24" fill="#EDEFF4" fill-opacity="0.45"/>
<g clip-path="url(#clip0_3108_1220)">
<path d="M15.509 23.5609C15.2824 23.5609 15.0986 23.3772 15.0986 23.1506C15.0986 22.924 15.2824 22.7402 15.509 22.7402C15.7356 22.7402 15.9193 22.924 15.9193 23.1506C15.9193 23.3772 15.7356 23.5609 15.509 23.5609Z" fill="#222222"/>
<path d="M37.5896 24.7011C37.8163 24.7011 38 24.5174 38 24.2908V22.3003C38 22.1631 37.9314 22.0349 37.8173 21.9589L35.2682 20.2595C35.2008 20.2146 35.1215 20.1905 35.0406 20.1905H34.6138C34.6138 20.1905 34.614 14.6567 34.614 14.6527C34.614 13.9579 34.0487 13.3926 33.3539 13.3926H13.8094C13.5828 13.3926 13.3991 13.5763 13.3991 13.8029V15.0923H12.1096C11.883 15.0923 11.6993 15.276 11.6993 15.5027V21.0404H10.4104C10.1837 21.0404 10 21.2241 10 21.4508V24.8498C10 25.0765 10.1837 25.2602 10.4104 25.2602H11.6993V30.7984C11.6993 31.0251 11.883 31.2087 12.1096 31.2087H28.1236C29.0681 32.764 30.5467 33.9817 32.3611 34.5865C32.4476 34.6145 32.5342 34.6145 32.6207 34.5865C35.7819 33.5323 37.9999 30.46 37.9999 27.1233V26.0793C37.9999 25.8527 37.8162 25.669 37.5896 25.669C37.363 25.669 37.1792 25.8527 37.1792 26.0793V27.1233C37.1792 30.0746 35.2719 32.7766 32.4909 33.7632C29.7144 32.7781 27.803 30.0683 27.803 27.1233V22.5199L30.066 21.0112H34.9162L37.1792 22.5199V24.2907C37.1793 24.5174 37.363 24.7011 37.5896 24.7011ZM18.8635 15.9131C19.0901 15.9131 19.2738 15.7294 19.2738 15.5027C19.2738 15.276 19.0901 15.0924 18.8635 15.0924H14.2198V14.2133H33.3539C33.5936 14.2133 33.7892 14.4063 33.7931 14.6452C33.7892 14.8699 33.5824 15.0924 33.3537 15.0924H20.652C20.4254 15.0924 20.2416 15.276 20.2416 15.5027C20.2416 15.7294 20.4254 15.9131 20.652 15.9131H33.3537C33.5061 15.9131 33.6543 15.8862 33.793 15.8347V17.594H12.52V15.913H18.8635V15.9131ZM10.8207 21.8612H15.5089C16.2198 21.8612 16.7981 22.4395 16.7981 23.1504C16.7981 23.8613 16.2198 24.4396 15.5089 24.4396H10.8207V21.8612ZM29.9418 20.1905C29.8608 20.1905 29.7816 20.2145 29.7142 20.2595L27.1651 21.9589C27.051 22.035 26.9824 22.1631 26.9824 22.3003V27.1233C26.9824 27.3478 26.9918 27.5707 27.0105 27.7913H24.9005C24.6739 27.7913 24.4902 27.975 24.4902 28.2017C24.4902 28.4284 24.6739 28.612 24.9005 28.612H27.1235C27.242 29.2302 27.4332 29.8257 27.6893 30.388H12.52V28.612H23.1125C23.3391 28.612 23.5228 28.4284 23.5228 28.2017C23.5228 27.975 23.3391 27.7913 23.1125 27.7913H12.52V25.2602H15.5089C16.6723 25.2602 17.6188 24.3137 17.6188 23.1503C17.6188 21.9868 16.6723 21.0404 15.5089 21.0404H12.52V18.4146H33.7931V20.1905H29.9418V20.1905Z" fill="#222222"/>
<path d="M34.7491 21.9723C34.6817 21.9273 34.6025 21.9033 34.5215 21.9033H30.46C30.379 21.9033 30.2998 21.9273 30.2324 21.9723L28.8771 22.8758C28.7629 22.9519 28.6943 23.08 28.6943 23.2172V27.1235C28.6943 29.543 30.1185 31.746 32.3227 32.7359C32.4347 32.7839 32.5468 32.7839 32.6589 32.7359C34.863 31.7459 36.2872 29.543 36.2872 27.1235V23.2172C36.2872 23.08 36.2186 22.9518 36.1044 22.8758L34.7491 21.9723ZM35.4664 27.1235C35.4664 29.1582 34.3045 31.0161 32.4907 31.908C30.6769 31.016 29.515 29.1581 29.515 27.1235V23.4368L30.5842 22.724H34.3972L35.4664 23.4368V27.1235Z" fill="#222222"/>
<path d="M33.8649 25.6192L32.0901 27.9273L31.0813 26.9185C30.9211 26.7583 30.6613 26.7582 30.5011 26.9185C30.3408 27.0787 30.3408 27.3386 30.5011 27.4988L31.8404 28.8381C32.0139 29.0116 32.3036 28.9962 32.4558 28.7981L34.5156 26.1194C34.6537 25.9398 34.6201 25.6822 34.4404 25.544C34.2607 25.4059 34.0031 25.4396 33.8649 25.6192Z" fill="#222222"/>
</g>
<defs>
<clipPath id="clip0_3108_1220">
<rect width="28" height="28" fill="white" transform="translate(10 10)"/>
</clipPath>
</defs>
</svg>
