<svg width="375" height="386" viewBox="0 0 375 386" fill="none" xmlns="http://www.w3.org/2000/svg">
<g opacity="0.25">
<g opacity="0.75" filter="url(#filter0_f_3231_241)">
<rect x="133.665" y="136.684" width="178.336" height="113.317" rx="40" fill="#0E273E"/>
</g>
</g>
<mask id="mask0_3231_241" style="mask-type:luminance" maskUnits="userSpaceOnUse" x="103" y="133" width="176" height="107">
<rect x="103.689" y="133" width="174.642" height="106.203" rx="14" fill="white"/>
</mask>
<g mask="url(#mask0_3231_241)">
<rect x="103.688" y="133" width="174.642" height="106.203" rx="3" fill="#EB1933"/>
<path d="M233.173 243.192L200.112 206.986L180.281 228.689L232.662 286.053H272.311L233.173 243.192Z" fill="#FECB5F"/>
<path d="M233.173 217.13L272.311 260.053H311.96L253.004 195.396L233.173 217.13Z" fill="#F8F9FA"/>
<path d="M164.959 118.259L232.237 191.699L291.193 256.053H321.081V245.399L184.777 96.6121L164.959 118.259Z" fill="#F79E1B"/>
<path d="M253.459 150.906L309.659 212.432V169.026L273.291 129.196L253.459 150.906Z" fill="#FECB5F"/>
</g>
<path d="M130.239 156.718H123.574V145.313H130.239L130.239 156.718Z" fill="#F79E1B"/>
<path d="M123.809 151.093C123.809 148.78 124.946 146.719 126.718 145.391C125.377 144.384 123.718 143.838 122.011 143.84C117.805 143.84 114.395 147.088 114.395 151.093C114.395 155.099 117.805 158.347 122.011 158.347C123.719 158.349 125.377 157.803 126.718 156.796C124.947 155.468 123.809 153.407 123.809 151.093Z" fill="#EB001B"/>
<path d="M138.957 151.093C138.957 155.099 135.547 158.347 131.341 158.347C129.633 158.349 127.974 157.803 126.633 156.796C128.405 155.468 129.543 153.407 129.543 151.093C129.543 148.78 128.405 146.719 126.633 145.391C127.974 144.384 129.633 143.838 131.341 143.84C135.547 143.84 138.957 147.088 138.957 151.093Z" fill="#F8F9FA"/>
<rect opacity="0.5" x="115.434" y="212" width="51.9162" height="9" fill="#FBFBFC"/>
<rect opacity="0.5" x="114.395" y="173" width="136.02" height="19" fill="#FBFBFC"/>
<rect opacity="0.5" x="115.434" y="223" width="39.4563" height="9" fill="#FBFBFC"/>
<defs>
<filter id="filter0_f_3231_241" x="-2.24954" y="0.769501" width="450.164" height="385.145" filterUnits="userSpaceOnUse" color-interpolation-filters="sRGB">
<feFlood flood-opacity="0" result="BackgroundImageFix"/>
<feBlend mode="normal" in="SourceGraphic" in2="BackgroundImageFix" result="shape"/>
<feGaussianBlur stdDeviation="67.957" result="effect1_foregroundBlur_3231_241"/>
</filter>
</defs>
</svg>
