<svg width="16" height="18" viewBox="0 0 16 18" fill="none" xmlns="http://www.w3.org/2000/svg">
<path d="M1 4.13672H2.56833H15.1149" stroke="#EB1933" stroke-width="1.56833" stroke-linecap="round" stroke-linejoin="round"/>
<path d="M4.92085 4.13665V2.56833C4.92085 2.15238 5.08608 1.75347 5.3802 1.45935C5.67432 1.16523 6.07323 1 6.48918 1H9.62583C10.0418 1 10.4407 1.16523 10.7348 1.45935C11.0289 1.75347 11.1942 2.15238 11.1942 2.56833V4.13665M13.5466 4.13665V15.1149C13.5466 15.5309 13.3814 15.9298 13.0873 16.2239C12.7932 16.518 12.3943 16.6833 11.9783 16.6833H4.13669C3.72074 16.6833 3.32183 16.518 3.02771 16.2239C2.73359 15.9298 2.56836 15.5309 2.56836 15.1149V4.13665H13.5466Z" stroke="#EB1933" stroke-width="1.56833" stroke-linecap="round" stroke-linejoin="round"/>
<path d="M6.48926 8.05762V12.7626" stroke="#EB1933" stroke-width="1.56833" stroke-linecap="round" stroke-linejoin="round"/>
<path d="M9.62598 8.05762V12.7626" stroke="#EB1933" stroke-width="1.56833" stroke-linecap="round" stroke-linejoin="round"/>
</svg>
